<svg width="658" height="587" viewBox="0 0 658 587" fill="none" xmlns="http://www.w3.org/2000/svg">
<path d="M304.948 14V3.09091H309.252C310.08 3.09091 310.784 3.24893 311.367 3.56499C311.949 3.87749 312.393 4.3125 312.699 4.87003C313.007 5.42401 313.162 6.06321 313.162 6.78764C313.162 7.51207 313.006 8.15128 312.693 8.70526C312.381 9.25923 311.928 9.6907 311.335 9.99964C310.745 10.3086 310.032 10.4631 309.194 10.4631H306.45V8.6147H308.821C309.265 8.6147 309.63 8.53835 309.918 8.38565C310.209 8.2294 310.426 8.01456 310.568 7.74112C310.713 7.46413 310.786 7.14631 310.786 6.78764C310.786 6.42543 310.713 6.10937 310.568 5.83949C310.426 5.56605 310.209 5.35476 309.918 5.20561C309.627 5.05291 309.257 4.97656 308.81 4.97656H307.255V14H304.948ZM318.214 14.1598C317.373 14.1598 316.648 13.9893 316.041 13.6484C315.437 13.304 314.972 12.8175 314.645 12.1889C314.319 11.5568 314.155 10.8093 314.155 9.94638C314.155 9.10476 314.319 8.36612 314.645 7.73047C314.972 7.09482 315.432 6.59943 316.025 6.24432C316.622 5.8892 317.321 5.71165 318.124 5.71165C318.664 5.71165 319.166 5.79865 319.631 5.97266C320.1 6.14311 320.508 6.40057 320.856 6.74503C321.208 7.08949 321.481 7.52273 321.677 8.04474C321.872 8.56321 321.97 9.17045 321.97 9.86648V10.4897H315.061V9.08345H319.834C319.834 8.75675 319.763 8.46733 319.621 8.2152C319.479 7.96307 319.281 7.76598 319.029 7.62393C318.781 7.47834 318.491 7.40554 318.161 7.40554C317.817 7.40554 317.511 7.48544 317.245 7.64524C316.982 7.80149 316.776 8.01278 316.627 8.27912C316.478 8.5419 316.401 8.83487 316.398 9.15803V10.495C316.398 10.8999 316.472 11.2496 316.622 11.5444C316.774 11.8391 316.989 12.0664 317.266 12.2262C317.543 12.386 317.872 12.4659 318.252 12.4659C318.504 12.4659 318.735 12.4304 318.944 12.3594C319.154 12.2884 319.333 12.1818 319.482 12.0398C319.631 11.8977 319.745 11.7237 319.823 11.5178L321.922 11.6562C321.815 12.1605 321.597 12.6009 321.267 12.9773C320.94 13.3501 320.517 13.6413 319.999 13.8509C319.484 14.0568 318.889 14.1598 318.214 14.1598ZM323.45 14V5.81818H325.65V7.24574H325.736C325.885 6.73793 326.135 6.3544 326.487 6.09517C326.838 5.83239 327.243 5.70099 327.701 5.70099C327.815 5.70099 327.937 5.7081 328.069 5.7223C328.2 5.73651 328.316 5.75604 328.415 5.78089V7.79439C328.308 7.76243 328.161 7.73402 327.973 7.70916C327.785 7.6843 327.612 7.67188 327.456 7.67188C327.122 7.67188 326.824 7.74467 326.561 7.89027C326.302 8.03232 326.096 8.23118 325.943 8.48686C325.794 8.74254 325.72 9.03729 325.72 9.37109V14H323.45ZM334.398 5.81818V7.52273H329.348V5.81818H334.398ZM330.504 14V5.22692C330.504 4.63388 330.62 4.14204 330.851 3.75142C331.085 3.36079 331.405 3.06783 331.809 2.87251C332.214 2.6772 332.674 2.57954 333.189 2.57954C333.537 2.57954 333.855 2.60618 334.142 2.65945C334.434 2.71271 334.65 2.76065 334.792 2.80327L334.388 4.50781C334.299 4.4794 334.189 4.45277 334.057 4.42791C333.929 4.40305 333.798 4.39062 333.663 4.39062C333.329 4.39062 333.097 4.46875 332.965 4.625C332.834 4.7777 332.768 4.99254 332.768 5.26953V14H330.504ZM339.188 14.1598C338.361 14.1598 337.645 13.984 337.042 13.6325C336.441 13.2773 335.978 12.7837 335.651 12.1516C335.325 11.516 335.161 10.7791 335.161 9.94105C335.161 9.09588 335.325 8.35724 335.651 7.72514C335.978 7.08949 336.441 6.59588 337.042 6.24432C337.645 5.8892 338.361 5.71165 339.188 5.71165C340.016 5.71165 340.729 5.8892 341.33 6.24432C341.933 6.59588 342.398 7.08949 342.725 7.72514C343.052 8.35724 343.215 9.09588 343.215 9.94105C343.215 10.7791 343.052 11.516 342.725 12.1516C342.398 12.7837 341.933 13.2773 341.33 13.6325C340.729 13.984 340.016 14.1598 339.188 14.1598ZM339.199 12.402C339.575 12.402 339.89 12.2955 340.142 12.0824C340.394 11.8658 340.584 11.571 340.712 11.1982C340.843 10.8253 340.909 10.4009 340.909 9.92507C340.909 9.44922 340.843 9.02486 340.712 8.65199C340.584 8.27912 340.394 7.98437 340.142 7.76776C339.89 7.55114 339.575 7.44283 339.199 7.44283C338.819 7.44283 338.499 7.55114 338.24 7.76776C337.984 7.98437 337.791 8.27912 337.659 8.65199C337.532 9.02486 337.468 9.44922 337.468 9.92507C337.468 10.4009 337.532 10.8253 337.659 11.1982C337.791 11.571 337.984 11.8658 338.24 12.0824C338.499 12.2955 338.819 12.402 339.199 12.402ZM344.691 14V5.81818H346.891V7.24574H346.976C347.125 6.73793 347.375 6.3544 347.727 6.09517C348.078 5.83239 348.483 5.70099 348.941 5.70099C349.055 5.70099 349.178 5.7081 349.309 5.7223C349.44 5.73651 349.556 5.75604 349.655 5.78089V7.79439C349.549 7.76243 349.401 7.73402 349.213 7.70916C349.025 7.6843 348.853 7.67188 348.696 7.67188C348.363 7.67188 348.064 7.74467 347.801 7.89027C347.542 8.03232 347.336 8.23118 347.184 8.48686C347.034 8.74254 346.96 9.03729 346.96 9.37109V14H344.691ZM350.828 14V5.81818H352.991V7.26172H353.087C353.257 6.78232 353.541 6.40412 353.939 6.12713C354.337 5.85014 354.813 5.71165 355.367 5.71165C355.928 5.71165 356.405 5.85192 356.8 6.13246C357.194 6.40945 357.457 6.78587 357.588 7.26172H357.673C357.84 6.79297 358.142 6.41832 358.579 6.13778C359.019 5.85369 359.539 5.71165 360.139 5.71165C360.903 5.71165 361.523 5.9549 361.998 6.44141C362.478 6.92436 362.718 7.60973 362.718 8.49751V14H360.454V8.94496C360.454 8.49041 360.333 8.1495 360.092 7.92223C359.85 7.69496 359.548 7.58132 359.186 7.58132C358.774 7.58132 358.453 7.71271 358.222 7.9755C357.991 8.23473 357.876 8.57741 357.876 9.00355V14H355.676V8.89702C355.676 8.49574 355.56 8.17614 355.329 7.93821C355.102 7.70028 354.802 7.58132 354.429 7.58132C354.177 7.58132 353.95 7.64524 353.747 7.77308C353.549 7.89737 353.391 8.07315 353.273 8.30043C353.156 8.52415 353.098 8.78693 353.098 9.08878V14H350.828ZM366.843 14.1545C366.321 14.1545 365.856 14.0639 365.448 13.8828C365.039 13.6982 364.716 13.4265 364.478 13.0678C364.244 12.7056 364.127 12.2546 364.127 11.7148C364.127 11.2603 364.21 10.8786 364.377 10.5696C364.544 10.2607 364.771 10.0121 365.059 9.82386C365.346 9.63565 365.673 9.49361 366.039 9.39773C366.408 9.30185 366.795 9.23438 367.2 9.19531C367.676 9.1456 368.059 9.09943 368.351 9.05682C368.642 9.01065 368.853 8.94318 368.984 8.8544C369.116 8.76562 369.182 8.63423 369.182 8.46023V8.42827C369.182 8.09091 369.075 7.8299 368.862 7.64524C368.652 7.46058 368.354 7.36825 367.967 7.36825C367.559 7.36825 367.234 7.45881 366.992 7.63991C366.751 7.81747 366.591 8.04119 366.513 8.31108L364.414 8.14062C364.521 7.64347 364.73 7.21378 365.043 6.85156C365.355 6.4858 365.758 6.20526 366.252 6.00994C366.749 5.81108 367.324 5.71165 367.978 5.71165C368.432 5.71165 368.867 5.76491 369.283 5.87145C369.702 5.97798 370.073 6.14311 370.396 6.36683C370.723 6.59055 370.98 6.8782 371.168 7.22976C371.357 7.57777 371.451 7.99503 371.451 8.48153V14H369.299V12.8654H369.235C369.103 13.1211 368.928 13.3466 368.707 13.5419C368.487 13.7337 368.223 13.8846 367.914 13.9947C367.605 14.1012 367.248 14.1545 366.843 14.1545ZM367.493 12.5884C367.827 12.5884 368.122 12.5227 368.377 12.3913C368.633 12.2564 368.834 12.0753 368.979 11.848C369.125 11.6207 369.198 11.3633 369.198 11.0756V10.2074C369.127 10.2536 369.029 10.2962 368.905 10.3352C368.784 10.3707 368.647 10.4045 368.494 10.4364C368.342 10.4648 368.189 10.4915 368.036 10.5163C367.884 10.5376 367.745 10.5572 367.621 10.5749C367.354 10.614 367.122 10.6761 366.923 10.7614C366.724 10.8466 366.57 10.962 366.46 11.1076C366.35 11.2496 366.294 11.4272 366.294 11.6403C366.294 11.9492 366.406 12.1854 366.63 12.3487C366.857 12.5085 367.145 12.5884 367.493 12.5884ZM375.48 9.26989V14H373.211V5.81818H375.374V7.26172H375.47C375.651 6.78587 375.954 6.40945 376.381 6.13246C376.807 5.85192 377.323 5.71165 377.931 5.71165C378.499 5.71165 378.994 5.83594 379.417 6.08452C379.839 6.3331 380.168 6.68821 380.402 7.14986C380.637 7.60795 380.754 8.15483 380.754 8.79048V14H378.485V9.19531C378.488 8.6946 378.36 8.30398 378.101 8.02344C377.842 7.73935 377.485 7.5973 377.03 7.5973C376.725 7.5973 376.455 7.663 376.221 7.79439C375.99 7.92578 375.809 8.11754 375.677 8.36967C375.55 8.61825 375.484 8.91832 375.48 9.26989ZM386.239 14.1598C385.401 14.1598 384.68 13.9822 384.076 13.6271C383.476 13.2685 383.015 12.7713 382.691 12.1357C382.372 11.5 382.212 10.7685 382.212 9.94105C382.212 9.10298 382.374 8.3679 382.697 7.7358C383.023 7.10014 383.487 6.60476 384.087 6.24964C384.687 5.89098 385.401 5.71165 386.228 5.71165C386.942 5.71165 387.567 5.84126 388.103 6.1005C388.64 6.35973 389.064 6.72372 389.376 7.19247C389.689 7.66122 389.861 8.21165 389.893 8.84375H387.752C387.691 8.43537 387.532 8.10689 387.272 7.85831C387.017 7.60618 386.681 7.48011 386.266 7.48011C385.914 7.48011 385.607 7.57599 385.344 7.76776C385.085 7.95597 384.882 8.23118 384.737 8.59339C384.591 8.95561 384.518 9.39418 384.518 9.90909C384.518 10.4311 384.589 10.875 384.732 11.2408C384.877 11.6065 385.081 11.8853 385.344 12.0771C385.607 12.2688 385.914 12.3647 386.266 12.3647C386.525 12.3647 386.757 12.3114 386.963 12.2049C387.173 12.0984 387.345 11.9439 387.48 11.7415C387.619 11.5355 387.709 11.2887 387.752 11.0011H389.893C389.858 11.6261 389.687 12.1765 389.382 12.6523C389.08 13.1246 388.663 13.494 388.13 13.7603C387.597 14.0266 386.967 14.1598 386.239 14.1598ZM395.075 14.1598C394.233 14.1598 393.509 13.9893 392.901 13.6484C392.298 13.304 391.832 12.8175 391.506 12.1889C391.179 11.5568 391.016 10.8093 391.016 9.94638C391.016 9.10476 391.179 8.36612 391.506 7.73047C391.832 7.09482 392.292 6.59943 392.885 6.24432C393.482 5.8892 394.182 5.71165 394.984 5.71165C395.524 5.71165 396.026 5.79865 396.492 5.97266C396.96 6.14311 397.369 6.40057 397.717 6.74503C398.068 7.08949 398.342 7.52273 398.537 8.04474C398.732 8.56321 398.83 9.17045 398.83 9.86648V10.4897H391.921V9.08345H396.694C396.694 8.75675 396.623 8.46733 396.481 8.2152C396.339 7.96307 396.142 7.76598 395.89 7.62393C395.641 7.47834 395.352 7.40554 395.021 7.40554C394.677 7.40554 394.372 7.48544 394.105 7.64524C393.842 7.80149 393.636 8.01278 393.487 8.27912C393.338 8.5419 393.262 8.83487 393.258 9.15803V10.495C393.258 10.8999 393.333 11.2496 393.482 11.5444C393.635 11.8391 393.85 12.0664 394.127 12.2262C394.403 12.386 394.732 12.4659 395.112 12.4659C395.364 12.4659 395.595 12.4304 395.804 12.3594C396.014 12.2884 396.193 12.1818 396.342 12.0398C396.492 11.8977 396.605 11.7237 396.683 11.5178L398.782 11.6562C398.676 12.1605 398.457 12.6009 398.127 12.9773C397.8 13.3501 397.378 13.6413 396.859 13.8509C396.344 14.0568 395.749 14.1598 395.075 14.1598Z" fill="black"/>
<path d="M74.8661 93.2283C74.8235 92.7987 74.6406 92.4648 74.3175 92.2269C73.9943 91.989 73.5558 91.87 73.0018 91.87C72.6254 91.87 72.3075 91.9233 72.0483 92.0298C71.7891 92.1328 71.5902 92.2766 71.4517 92.4613C71.3168 92.646 71.2493 92.8555 71.2493 93.0898C71.2422 93.2852 71.283 93.4556 71.3718 93.6012C71.4641 93.7468 71.5902 93.8729 71.75 93.9794C71.9098 94.0824 72.0945 94.1729 72.304 94.2511C72.5135 94.3256 72.7372 94.3896 72.9751 94.4428L73.9553 94.6772C74.4311 94.7837 74.8679 94.9258 75.2656 95.1033C75.6634 95.2809 76.0078 95.4993 76.299 95.7585C76.5902 96.0178 76.8157 96.3232 76.9755 96.6747C77.1388 97.0263 77.2223 97.4293 77.2259 97.8839C77.2223 98.5515 77.0518 99.1303 76.7145 99.6204C76.3807 100.107 75.8977 100.485 75.2656 100.755C74.6371 101.021 73.8789 101.154 72.9911 101.154C72.1104 101.154 71.3434 101.02 70.69 100.75C70.0401 100.48 69.5323 100.08 69.1665 99.5511C68.8043 99.0185 68.6143 98.3597 68.5966 97.5749H70.8285C70.8533 97.9407 70.9581 98.2461 71.1428 98.4911C71.331 98.7326 71.5813 98.9155 71.8938 99.0398C72.2099 99.1605 72.5668 99.2209 72.9645 99.2209C73.3551 99.2209 73.6942 99.1641 73.9819 99.0504C74.2731 98.9368 74.4986 98.7788 74.6584 98.5763C74.8182 98.3739 74.8981 98.1413 74.8981 97.8786C74.8981 97.6335 74.8253 97.4276 74.6797 97.2607C74.5376 97.0937 74.3281 96.9517 74.0511 96.8345C73.7777 96.7173 73.4421 96.6108 73.0444 96.5149L71.8565 96.2166C70.9368 95.9929 70.2106 95.6431 69.6779 95.1673C69.1452 94.6914 68.8807 94.0504 68.8842 93.2443C68.8807 92.5838 69.0565 92.0067 69.4116 91.5131C69.7702 91.0195 70.2621 90.6342 70.8871 90.3572C71.5121 90.0803 72.2223 89.9418 73.0178 89.9418C73.8274 89.9418 74.5341 90.0803 75.1378 90.3572C75.745 90.6342 76.2173 91.0195 76.5547 91.5131C76.892 92.0067 77.0661 92.5785 77.0767 93.2283H74.8661ZM81.0677 101.154C80.5457 101.154 80.0805 101.064 79.6721 100.883C79.2638 100.698 78.9406 100.426 78.7027 100.068C78.4683 99.7056 78.3511 99.2546 78.3511 98.7148C78.3511 98.2603 78.4346 97.8786 78.6015 97.5696C78.7684 97.2607 78.9956 97.0121 79.2833 96.8239C79.5709 96.6357 79.8976 96.4936 80.2634 96.3977C80.6327 96.3018 81.0198 96.2344 81.4246 96.1953C81.9005 96.1456 82.284 96.0994 82.5752 96.0568C82.8664 96.0107 83.0777 95.9432 83.2091 95.8544C83.3405 95.7656 83.4062 95.6342 83.4062 95.4602V95.4283C83.4062 95.0909 83.2996 94.8299 83.0866 94.6452C82.877 94.4606 82.5787 94.3683 82.1917 94.3683C81.7833 94.3683 81.4584 94.4588 81.2169 94.6399C80.9754 94.8175 80.8156 95.0412 80.7375 95.3111L78.6388 95.1406C78.7453 94.6435 78.9548 94.2138 79.2673 93.8516C79.5798 93.4858 79.9829 93.2053 80.4765 93.0099C80.9736 92.8111 81.5489 92.7116 82.2023 92.7116C82.6569 92.7116 83.0919 92.7649 83.5074 92.8714C83.9264 92.978 84.2975 93.1431 84.6207 93.3668C84.9474 93.5906 85.2048 93.8782 85.393 94.2298C85.5812 94.5778 85.6753 94.995 85.6753 95.4815V101H83.5233V99.8654H83.4594C83.328 100.121 83.1523 100.347 82.9321 100.542C82.7119 100.734 82.4474 100.885 82.1384 100.995C81.8295 101.101 81.4726 101.154 81.0677 101.154ZM81.7176 99.5884C82.0514 99.5884 82.3461 99.5227 82.6018 99.3913C82.8575 99.2564 83.0581 99.0753 83.2037 98.848C83.3493 98.6207 83.4221 98.3633 83.4221 98.0756V97.2074C83.3511 97.2536 83.2535 97.2962 83.1292 97.3352C83.0084 97.3707 82.8717 97.4045 82.719 97.4364C82.5663 97.4648 82.4136 97.4915 82.2609 97.5163C82.1082 97.5376 81.9697 97.5572 81.8454 97.5749C81.5791 97.614 81.3465 97.6761 81.1476 97.7614C80.9488 97.8466 80.7943 97.962 80.6842 98.1076C80.5741 98.2496 80.5191 98.4272 80.5191 98.6403C80.5191 98.9492 80.6309 99.1854 80.8547 99.3487C81.0819 99.5085 81.3696 99.5884 81.7176 99.5884ZM91.7877 92.8182V94.5227H86.8605V92.8182H91.7877ZM87.9791 90.858H90.2483V98.4858C90.2483 98.6953 90.2803 98.8587 90.3442 98.9759C90.4081 99.0895 90.4969 99.1694 90.6105 99.2156C90.7277 99.2617 90.8627 99.2848 91.0154 99.2848C91.1219 99.2848 91.2284 99.2759 91.335 99.2582C91.4415 99.2369 91.5232 99.2209 91.58 99.2102L91.9369 100.899C91.8232 100.934 91.6634 100.975 91.4575 101.021C91.2515 101.071 91.0012 101.101 90.7064 101.112C90.1595 101.133 89.6801 101.06 89.2682 100.893C88.8598 100.727 88.542 100.467 88.3147 100.116C88.0874 99.7642 87.9756 99.3203 87.9791 98.7841V90.858ZM93.2659 101V92.8182H95.5351V101H93.2659ZM94.4058 91.7635C94.0684 91.7635 93.779 91.6516 93.5376 91.4279C93.2996 91.2006 93.1807 90.929 93.1807 90.6129C93.1807 90.3004 93.2996 90.0323 93.5376 89.8086C93.779 89.5813 94.0684 89.4677 94.4058 89.4677C94.7432 89.4677 95.0308 89.5813 95.2687 89.8086C95.5102 90.0323 95.6309 90.3004 95.6309 90.6129C95.6309 90.929 95.5102 91.2006 95.2687 91.4279C95.0308 91.6516 94.7432 91.7635 94.4058 91.7635ZM104.16 95.1513L102.083 95.2791C102.047 95.1016 101.971 94.9418 101.854 94.7997C101.737 94.6541 101.582 94.5387 101.39 94.4535C101.202 94.3647 100.977 94.3203 100.714 94.3203C100.362 94.3203 100.066 94.3949 99.8244 94.544C99.5829 94.6896 99.4622 94.8849 99.4622 95.13C99.4622 95.3253 99.5403 95.4904 99.6966 95.6254C99.8528 95.7603 100.121 95.8686 100.501 95.9503L101.982 96.2486C102.777 96.4119 103.37 96.6747 103.761 97.0369C104.151 97.3991 104.347 97.875 104.347 98.4645C104.347 99.0007 104.189 99.4712 103.873 99.8761C103.56 100.281 103.131 100.597 102.584 100.824C102.04 101.048 101.414 101.16 100.703 101.16C99.6202 101.16 98.7573 100.934 98.1145 100.483C97.4753 100.029 97.1007 99.4109 96.9906 98.6296L99.2225 98.5124C99.29 98.8427 99.4533 99.0948 99.7125 99.2688C99.9718 99.4393 100.304 99.5245 100.709 99.5245C101.106 99.5245 101.426 99.4482 101.667 99.2955C101.912 99.1392 102.037 98.9386 102.04 98.6935C102.037 98.4876 101.95 98.3189 101.779 98.1875C101.609 98.0526 101.346 97.9496 100.991 97.8786L99.574 97.5962C98.775 97.4364 98.1802 97.1594 97.7896 96.7653C97.4025 96.3711 97.209 95.8686 97.209 95.2578C97.209 94.7322 97.351 94.2795 97.6351 93.8995C97.9228 93.5195 98.3258 93.2266 98.8443 93.0206C99.3663 92.8146 99.9771 92.7116 100.677 92.7116C101.71 92.7116 102.523 92.93 103.116 93.3668C103.713 93.8036 104.061 94.3984 104.16 95.1513ZM110.176 92.8182V94.5227H105.126V92.8182H110.176ZM106.282 101V92.2269C106.282 91.6339 106.397 91.142 106.628 90.7514C106.862 90.3608 107.182 90.0678 107.587 89.8725C107.992 89.6772 108.451 89.5795 108.966 89.5795C109.314 89.5795 109.632 89.6062 109.92 89.6594C110.211 89.7127 110.428 89.7607 110.57 89.8033L110.165 91.5078C110.076 91.4794 109.966 91.4528 109.835 91.4279C109.707 91.4031 109.575 91.3906 109.44 91.3906C109.107 91.3906 108.874 91.4688 108.743 91.625C108.611 91.7777 108.546 91.9925 108.546 92.2695V101H106.282ZM113.602 101.154C113.08 101.154 112.615 101.064 112.206 100.883C111.798 100.698 111.475 100.426 111.237 100.068C111.002 99.7056 110.885 99.2546 110.885 98.7148C110.885 98.2603 110.969 97.8786 111.136 97.5696C111.303 97.2607 111.53 97.0121 111.817 96.8239C112.105 96.6357 112.432 96.4936 112.798 96.3977C113.167 96.3018 113.554 96.2344 113.959 96.1953C114.435 96.1456 114.818 96.0994 115.109 96.0568C115.401 96.0107 115.612 95.9432 115.743 95.8544C115.875 95.7656 115.94 95.6342 115.94 95.4602V95.4283C115.94 95.0909 115.834 94.8299 115.621 94.6452C115.411 94.4606 115.113 94.3683 114.726 94.3683C114.317 94.3683 113.993 94.4588 113.751 94.6399C113.51 94.8175 113.35 95.0412 113.272 95.3111L111.173 95.1406C111.279 94.6435 111.489 94.2138 111.801 93.8516C112.114 93.4858 112.517 93.2053 113.011 93.0099C113.508 92.8111 114.083 92.7116 114.737 92.7116C115.191 92.7116 115.626 92.7649 116.042 92.8714C116.461 92.978 116.832 93.1431 117.155 93.3668C117.482 93.5906 117.739 93.8782 117.927 94.2298C118.115 94.5778 118.21 94.995 118.21 95.4815V101H116.058V99.8654H115.994C115.862 100.121 115.686 100.347 115.466 100.542C115.246 100.734 114.982 100.885 114.673 100.995C114.364 101.101 114.007 101.154 113.602 101.154ZM114.252 99.5884C114.586 99.5884 114.88 99.5227 115.136 99.3913C115.392 99.2564 115.592 99.0753 115.738 98.848C115.884 98.6207 115.956 98.3633 115.956 98.0756V97.2074C115.885 97.2536 115.788 97.2962 115.663 97.3352C115.543 97.3707 115.406 97.4045 115.253 97.4364C115.1 97.4648 114.948 97.4915 114.795 97.5163C114.642 97.5376 114.504 97.5572 114.38 97.5749C114.113 97.614 113.881 97.6761 113.682 97.7614C113.483 97.8466 113.328 97.962 113.218 98.1076C113.108 98.2496 113.053 98.4272 113.053 98.6403C113.053 98.9492 113.165 99.1854 113.389 99.3487C113.616 99.5085 113.904 99.5884 114.252 99.5884ZM123.667 101.16C122.829 101.16 122.108 100.982 121.504 100.627C120.904 100.268 120.442 99.7713 120.119 99.1357C119.8 98.5 119.64 97.7685 119.64 96.9411C119.64 96.103 119.801 95.3679 120.124 94.7358C120.451 94.1001 120.915 93.6048 121.515 93.2496C122.115 92.891 122.829 92.7116 123.656 92.7116C124.37 92.7116 124.995 92.8413 125.531 93.1005C126.067 93.3597 126.492 93.7237 126.804 94.1925C127.117 94.6612 127.289 95.2116 127.321 95.8438H125.18C125.119 95.4354 124.959 95.1069 124.7 94.8583C124.444 94.6062 124.109 94.4801 123.693 94.4801C123.342 94.4801 123.035 94.576 122.772 94.7678C122.513 94.956 122.31 95.2312 122.165 95.5934C122.019 95.9556 121.946 96.3942 121.946 96.9091C121.946 97.4311 122.017 97.875 122.159 98.2408C122.305 98.6065 122.509 98.8853 122.772 99.0771C123.035 99.2688 123.342 99.3647 123.693 99.3647C123.953 99.3647 124.185 99.3114 124.391 99.2049C124.601 99.0984 124.773 98.9439 124.908 98.7415C125.046 98.5355 125.137 98.2887 125.18 98.0011H127.321C127.285 98.6261 127.115 99.1765 126.809 99.6523C126.508 100.125 126.09 100.494 125.558 100.76C125.025 101.027 124.395 101.16 123.667 101.16ZM133.126 92.8182V94.5227H128.198V92.8182H133.126ZM129.317 90.858H131.586V98.4858C131.586 98.6953 131.618 98.8587 131.682 98.9759C131.746 99.0895 131.835 99.1694 131.948 99.2156C132.066 99.2617 132.201 99.2848 132.353 99.2848C132.46 99.2848 132.566 99.2759 132.673 99.2582C132.779 99.2369 132.861 99.2209 132.918 99.2102L133.275 100.899C133.161 100.934 133.001 100.975 132.795 101.021C132.589 101.071 132.339 101.101 132.044 101.112C131.497 101.133 131.018 101.06 130.606 100.893C130.198 100.727 129.88 100.467 129.653 100.116C129.425 99.7642 129.313 99.3203 129.317 98.7841V90.858ZM134.604 101V92.8182H136.873V101H134.604ZM135.744 91.7635C135.406 91.7635 135.117 91.6516 134.875 91.4279C134.638 91.2006 134.519 90.929 134.519 90.6129C134.519 90.3004 134.638 90.0323 134.875 89.8086C135.117 89.5813 135.406 89.4677 135.744 89.4677C136.081 89.4677 136.369 89.5813 136.607 89.8086C136.848 90.0323 136.969 90.3004 136.969 90.6129C136.969 90.929 136.848 91.2006 136.607 91.4279C136.369 91.6516 136.081 91.7635 135.744 91.7635ZM142.387 101.16C141.56 101.16 140.844 100.984 140.241 100.632C139.641 100.277 139.177 99.7837 138.85 99.1516C138.524 98.516 138.36 97.7791 138.36 96.9411C138.36 96.0959 138.524 95.3572 138.85 94.7251C139.177 94.0895 139.641 93.5959 140.241 93.2443C140.844 92.8892 141.56 92.7116 142.387 92.7116C143.215 92.7116 143.929 92.8892 144.529 93.2443C145.132 93.5959 145.598 94.0895 145.924 94.7251C146.251 95.3572 146.414 96.0959 146.414 96.9411C146.414 97.7791 146.251 98.516 145.924 99.1516C145.598 99.7837 145.132 100.277 144.529 100.632C143.929 100.984 143.215 101.16 142.387 101.16ZM142.398 99.402C142.775 99.402 143.089 99.2955 143.341 99.0824C143.593 98.8658 143.783 98.571 143.911 98.1982C144.042 97.8253 144.108 97.4009 144.108 96.9251C144.108 96.4492 144.042 96.0249 143.911 95.652C143.783 95.2791 143.593 94.9844 143.341 94.7678C143.089 94.5511 142.775 94.4428 142.398 94.4428C142.018 94.4428 141.699 94.5511 141.439 94.7678C141.184 94.9844 140.99 95.2791 140.859 95.652C140.731 96.0249 140.667 96.4492 140.667 96.9251C140.667 97.4009 140.731 97.8253 140.859 98.1982C140.99 98.571 141.184 98.8658 141.439 99.0824C141.699 99.2955 142.018 99.402 142.398 99.402ZM150.159 96.2699V101H147.89V92.8182H150.053V94.2617H150.148C150.33 93.7859 150.633 93.4094 151.059 93.1325C151.485 92.8519 152.002 92.7116 152.609 92.7116C153.178 92.7116 153.673 92.8359 154.096 93.0845C154.518 93.3331 154.847 93.6882 155.081 94.1499C155.315 94.608 155.433 95.1548 155.433 95.7905V101H153.163V96.1953C153.167 95.6946 153.039 95.304 152.78 95.0234C152.521 94.7393 152.164 94.5973 151.709 94.5973C151.404 94.5973 151.134 94.663 150.9 94.7944C150.669 94.9258 150.488 95.1175 150.356 95.3697C150.228 95.6183 150.163 95.9183 150.159 96.2699Z" fill="black"/>
<path d="M0.948153 299V288.091H8.29901V289.993H3.25462V292.592H7.92081V294.494H3.25462V297.098H8.32031V299H0.948153ZM14.49 290.818V292.523H9.44025V290.818H14.49ZM10.5961 299V290.227C10.5961 289.634 10.7116 289.142 10.9424 288.751C11.1768 288.361 11.4964 288.068 11.9012 287.873C12.306 287.677 12.7659 287.58 13.2808 287.58C13.6288 287.58 13.9466 287.606 14.2343 287.659C14.5255 287.713 14.7421 287.761 14.8841 287.803L14.4793 289.508C14.3905 289.479 14.2805 289.453 14.1491 289.428C14.0212 289.403 13.8898 289.391 13.7549 289.391C13.4211 289.391 13.1885 289.469 13.0571 289.625C12.9257 289.778 12.86 289.993 12.86 290.27V299H10.5961ZM15.8762 299V290.818H18.1454V299H15.8762ZM17.0162 289.763C16.6788 289.763 16.3894 289.652 16.1479 289.428C15.91 289.201 15.791 288.929 15.791 288.613C15.791 288.3 15.91 288.032 16.1479 287.809C16.3894 287.581 16.6788 287.468 17.0162 287.468C17.3535 287.468 17.6412 287.581 17.8791 287.809C18.1206 288.032 18.2413 288.3 18.2413 288.613C18.2413 288.929 18.1206 289.201 17.8791 289.428C17.6412 289.652 17.3535 289.763 17.0162 289.763ZM23.6599 299.16C22.8218 299.16 22.1009 298.982 21.4972 298.627C20.8971 298.268 20.4355 297.771 20.1123 297.136C19.7927 296.5 19.6329 295.768 19.6329 294.941C19.6329 294.103 19.7945 293.368 20.1176 292.736C20.4443 292.1 20.9078 291.605 21.5079 291.25C22.108 290.891 22.8218 290.712 23.6492 290.712C24.363 290.712 24.988 290.841 25.5242 291.1C26.0605 291.36 26.4848 291.724 26.7973 292.192C27.1098 292.661 27.282 293.212 27.314 293.844H25.1727C25.1123 293.435 24.9525 293.107 24.6933 292.858C24.4376 292.606 24.102 292.48 23.6865 292.48C23.335 292.48 23.0278 292.576 22.765 292.768C22.5058 292.956 22.3034 293.231 22.1578 293.593C22.0122 293.956 21.9394 294.394 21.9394 294.909C21.9394 295.431 22.0104 295.875 22.1524 296.241C22.298 296.607 22.5022 296.885 22.765 297.077C23.0278 297.269 23.335 297.365 23.6865 297.365C23.9458 297.365 24.1784 297.311 24.3843 297.205C24.5938 297.098 24.7661 296.944 24.901 296.741C25.0395 296.536 25.1301 296.289 25.1727 296.001H27.314C27.2785 296.626 27.108 297.176 26.8026 297.652C26.5008 298.125 26.0835 298.494 25.5509 298.76C25.0182 299.027 24.3879 299.16 23.6599 299.16ZM28.7669 299V290.818H31.036V299H28.7669ZM29.9068 289.763C29.5694 289.763 29.28 289.652 29.0385 289.428C28.8006 289.201 28.6816 288.929 28.6816 288.613C28.6816 288.3 28.8006 288.032 29.0385 287.809C29.28 287.581 29.5694 287.468 29.9068 287.468C30.2441 287.468 30.5318 287.581 30.7697 287.809C31.0112 288.032 31.1319 288.3 31.1319 288.613C31.1319 288.929 31.0112 289.201 30.7697 289.428C30.5318 289.652 30.2441 289.763 29.9068 289.763ZM36.5825 299.16C35.7409 299.16 35.0164 298.989 34.4092 298.648C33.8055 298.304 33.3403 297.817 33.0136 297.189C32.6869 296.557 32.5235 295.809 32.5235 294.946C32.5235 294.105 32.6869 293.366 33.0136 292.73C33.3403 292.095 33.8002 291.599 34.3932 291.244C34.9898 290.889 35.6894 290.712 36.4919 290.712C37.0317 290.712 37.5342 290.799 37.9994 290.973C38.4681 291.143 38.8765 291.401 39.2245 291.745C39.5761 292.089 39.8495 292.523 40.0448 293.045C40.2401 293.563 40.3378 294.17 40.3378 294.866V295.49H33.4291V294.083H38.2018C38.2018 293.757 38.1308 293.467 37.9887 293.215C37.8467 292.963 37.6496 292.766 37.3975 292.624C37.1489 292.478 36.8595 292.406 36.5292 292.406C36.1847 292.406 35.8794 292.485 35.613 292.645C35.3502 292.801 35.1443 293.013 34.9951 293.279C34.846 293.542 34.7696 293.835 34.7661 294.158V295.495C34.7661 295.9 34.8406 296.25 34.9898 296.544C35.1425 296.839 35.3573 297.066 35.6343 297.226C35.9113 297.386 36.2398 297.466 36.6198 297.466C36.8719 297.466 37.1027 297.43 37.3122 297.359C37.5218 297.288 37.7011 297.182 37.8502 297.04C37.9994 296.898 38.113 296.724 38.1911 296.518L40.2899 296.656C40.1833 297.161 39.9649 297.601 39.6347 297.977C39.308 298.35 38.8854 298.641 38.3669 298.851C37.852 299.057 37.2572 299.16 36.5825 299.16ZM44.0878 294.27V299H41.8186V290.818H43.9813V292.262H44.0771C44.2583 291.786 44.5619 291.409 44.988 291.132C45.4142 290.852 45.9308 290.712 46.5381 290.712C47.1063 290.712 47.6017 290.836 48.0242 291.085C48.4468 291.333 48.7753 291.688 49.0097 292.15C49.2441 292.608 49.3612 293.155 49.3612 293.79V299H47.0921V294.195C47.0956 293.695 46.9678 293.304 46.7085 293.023C46.4493 292.739 46.0924 292.597 45.6379 292.597C45.3325 292.597 45.0626 292.663 44.8282 292.794C44.5974 292.926 44.4163 293.118 44.2849 293.37C44.157 293.618 44.0914 293.918 44.0878 294.27ZM54.8464 299.16C54.0083 299.16 53.2875 298.982 52.6838 298.627C52.0836 298.268 51.622 297.771 51.2988 297.136C50.9792 296.5 50.8194 295.768 50.8194 294.941C50.8194 294.103 50.981 293.368 51.3042 292.736C51.6309 292.1 52.0943 291.605 52.6944 291.25C53.2946 290.891 54.0083 290.712 54.8358 290.712C55.5495 290.712 56.1745 290.841 56.7108 291.1C57.247 291.36 57.6713 291.724 57.9838 292.192C58.2963 292.661 58.4686 293.212 58.5005 293.844H56.3592C56.2988 293.435 56.139 293.107 55.8798 292.858C55.6241 292.606 55.2885 292.48 54.873 292.48C54.5215 292.48 54.2143 292.576 53.9515 292.768C53.6923 292.956 53.4899 293.231 53.3443 293.593C53.1987 293.956 53.1259 294.394 53.1259 294.909C53.1259 295.431 53.1969 295.875 53.339 296.241C53.4846 296.607 53.6887 296.885 53.9515 297.077C54.2143 297.269 54.5215 297.365 54.873 297.365C55.1323 297.365 55.3649 297.311 55.5708 297.205C55.7804 297.098 55.9526 296.944 56.0875 296.741C56.226 296.536 56.3166 296.289 56.3592 296.001H58.5005C58.465 296.626 58.2946 297.176 57.9892 297.652C57.6873 298.125 57.2701 298.494 56.7374 298.76C56.2047 299.027 55.5744 299.16 54.8464 299.16ZM61.3543 302.068C61.0667 302.068 60.7968 302.045 60.5447 301.999C60.2961 301.956 60.0901 301.901 59.9268 301.834L60.4381 300.14C60.7045 300.222 60.9442 300.266 61.1572 300.273C61.3738 300.28 61.5603 300.23 61.7165 300.124C61.8763 300.017 62.0059 299.836 62.1054 299.581L62.2385 299.234L59.3035 290.818H61.6899L63.3838 296.827H63.469L65.1789 290.818H67.5812L64.4012 299.884C64.2485 300.325 64.0407 300.708 63.778 301.035C63.5187 301.365 63.1903 301.619 62.7925 301.797C62.3948 301.978 61.9154 302.068 61.3543 302.068Z" fill="black"/>
<path d="M78.5735 507.91H76.2404C76.1978 507.608 76.1108 507.34 75.9794 507.106C75.848 506.868 75.6793 506.665 75.4734 506.499C75.2674 506.332 75.0295 506.204 74.7596 506.115C74.4933 506.026 74.2038 505.982 73.8913 505.982C73.3267 505.982 72.8349 506.122 72.4158 506.403C71.9968 506.68 71.6719 507.085 71.4411 507.617C71.2102 508.146 71.0948 508.789 71.0948 509.545C71.0948 510.323 71.2102 510.977 71.4411 511.506C71.6754 512.035 72.0021 512.434 72.4212 512.704C72.8402 512.974 73.3249 513.109 73.8754 513.109C74.1843 513.109 74.4702 513.068 74.733 512.987C74.9993 512.905 75.2354 512.786 75.4414 512.63C75.6474 512.47 75.8178 512.276 75.9528 512.049C76.0913 511.822 76.1871 511.562 76.2404 511.271L78.5735 511.282C78.5131 511.783 78.3622 512.266 78.1207 512.731C77.8828 513.192 77.5614 513.606 77.1566 513.972C76.7553 514.334 76.2759 514.622 75.7184 514.835C75.1644 515.044 74.5376 515.149 73.8381 515.149C72.8651 515.149 71.995 514.929 71.228 514.489C70.4645 514.048 69.8608 513.411 69.4169 512.576C68.9766 511.742 68.7564 510.732 68.7564 509.545C68.7564 508.356 68.9801 507.344 69.4276 506.509C69.875 505.675 70.4822 505.039 71.2493 504.602C72.0163 504.162 72.8793 503.942 73.8381 503.942C74.4702 503.942 75.0561 504.031 75.5959 504.208C76.1392 504.386 76.6204 504.645 77.0394 504.986C77.4585 505.323 77.7994 505.737 78.0621 506.227C78.3285 506.717 78.4989 507.278 78.5735 507.91ZM83.8816 515.16C83.0542 515.16 82.3386 514.984 81.7349 514.632C81.1348 514.277 80.6713 513.784 80.3446 513.152C80.0179 512.516 79.8546 511.779 79.8546 510.941C79.8546 510.096 80.0179 509.357 80.3446 508.725C80.6713 508.089 81.1348 507.596 81.7349 507.244C82.3386 506.889 83.0542 506.712 83.8816 506.712C84.709 506.712 85.4228 506.889 86.0229 507.244C86.6266 507.596 87.0918 508.089 87.4185 508.725C87.7452 509.357 87.9086 510.096 87.9086 510.941C87.9086 511.779 87.7452 512.516 87.4185 513.152C87.0918 513.784 86.6266 514.277 86.0229 514.632C85.4228 514.984 84.709 515.16 83.8816 515.16ZM83.8922 513.402C84.2686 513.402 84.5829 513.295 84.835 513.082C85.0872 512.866 85.2772 512.571 85.405 512.198C85.5364 511.825 85.6021 511.401 85.6021 510.925C85.6021 510.449 85.5364 510.025 85.405 509.652C85.2772 509.279 85.0872 508.984 84.835 508.768C84.5829 508.551 84.2686 508.443 83.8922 508.443C83.5123 508.443 83.1926 508.551 82.9334 508.768C82.6777 508.984 82.4842 509.279 82.3528 509.652C82.225 510.025 82.161 510.449 82.161 510.925C82.161 511.401 82.225 511.825 82.3528 512.198C82.4842 512.571 82.6777 512.866 82.9334 513.082C83.1926 513.295 83.5123 513.402 83.8922 513.402ZM91.6532 504.091V515H89.3841V504.091H91.6532ZM95.7401 504.091V515H93.471V504.091H95.7401ZM99.891 515.154C99.369 515.154 98.9038 515.064 98.4954 514.883C98.087 514.698 97.7638 514.426 97.5259 514.068C97.2915 513.706 97.1744 513.255 97.1744 512.715C97.1744 512.26 97.2578 511.879 97.4247 511.57C97.5916 511.261 97.8189 511.012 98.1065 510.824C98.3942 510.636 98.7209 510.494 99.0866 510.398C99.456 510.302 99.843 510.234 100.248 510.195C100.724 510.146 101.107 510.099 101.398 510.057C101.69 510.011 101.901 509.943 102.032 509.854C102.164 509.766 102.229 509.634 102.229 509.46V509.428C102.229 509.091 102.123 508.83 101.91 508.645C101.7 508.461 101.402 508.368 101.015 508.368C100.607 508.368 100.282 508.459 100.04 508.64C99.7987 508.817 99.6388 509.041 99.5607 509.311L97.462 509.141C97.5685 508.643 97.7781 508.214 98.0906 507.852C98.4031 507.486 98.8061 507.205 99.2997 507.01C99.7969 506.811 100.372 506.712 101.026 506.712C101.48 506.712 101.915 506.765 102.331 506.871C102.75 506.978 103.121 507.143 103.444 507.367C103.771 507.591 104.028 507.878 104.216 508.23C104.404 508.578 104.499 508.995 104.499 509.482V515H102.347V513.865H102.283C102.151 514.121 101.975 514.347 101.755 514.542C101.535 514.734 101.271 514.885 100.962 514.995C100.653 515.101 100.296 515.154 99.891 515.154ZM100.541 513.588C100.875 513.588 101.169 513.523 101.425 513.391C101.681 513.256 101.881 513.075 102.027 512.848C102.173 512.621 102.245 512.363 102.245 512.076V511.207C102.174 511.254 102.077 511.296 101.952 511.335C101.832 511.371 101.695 511.404 101.542 511.436C101.39 511.465 101.237 511.491 101.084 511.516C100.931 511.538 100.793 511.557 100.669 511.575C100.402 511.614 100.17 511.676 99.9709 511.761C99.772 511.847 99.6175 511.962 99.5075 512.108C99.3974 512.25 99.3423 512.427 99.3423 512.64C99.3423 512.949 99.4542 513.185 99.6779 513.349C99.9052 513.509 100.193 513.588 100.541 513.588ZM106.302 515V504.091H108.571V508.192H108.64C108.74 507.972 108.883 507.749 109.072 507.521C109.263 507.29 109.512 507.099 109.817 506.946C110.126 506.79 110.51 506.712 110.968 506.712C111.564 506.712 112.115 506.868 112.619 507.18C113.123 507.489 113.526 507.956 113.828 508.581C114.13 509.203 114.281 509.982 114.281 510.92C114.281 511.832 114.134 512.603 113.839 513.232C113.548 513.857 113.15 514.331 112.646 514.654C112.145 514.973 111.584 515.133 110.963 515.133C110.522 515.133 110.148 515.06 109.839 514.915C109.533 514.769 109.283 514.586 109.088 514.366C108.892 514.142 108.743 513.917 108.64 513.69H108.539V515H106.302ZM108.523 510.909C108.523 511.396 108.59 511.82 108.725 512.182C108.86 512.544 109.056 512.827 109.311 513.029C109.567 513.228 109.878 513.327 110.243 513.327C110.613 513.327 110.925 513.226 111.181 513.024C111.437 512.818 111.63 512.534 111.762 512.172C111.896 511.806 111.964 511.385 111.964 510.909C111.964 510.437 111.898 510.021 111.767 509.663C111.635 509.304 111.442 509.023 111.186 508.821C110.931 508.619 110.616 508.517 110.243 508.517C109.874 508.517 109.562 508.615 109.306 508.81C109.054 509.006 108.86 509.283 108.725 509.641C108.59 510 108.523 510.423 108.523 510.909ZM119.492 515.16C118.665 515.16 117.949 514.984 117.345 514.632C116.745 514.277 116.282 513.784 115.955 513.152C115.628 512.516 115.465 511.779 115.465 510.941C115.465 510.096 115.628 509.357 115.955 508.725C116.282 508.089 116.745 507.596 117.345 507.244C117.949 506.889 118.665 506.712 119.492 506.712C120.319 506.712 121.033 506.889 121.633 507.244C122.237 507.596 122.702 508.089 123.029 508.725C123.356 509.357 123.519 510.096 123.519 510.941C123.519 511.779 123.356 512.516 123.029 513.152C122.702 513.784 122.237 514.277 121.633 514.632C121.033 514.984 120.319 515.16 119.492 515.16ZM119.503 513.402C119.879 513.402 120.193 513.295 120.445 513.082C120.698 512.866 120.888 512.571 121.015 512.198C121.147 511.825 121.212 511.401 121.212 510.925C121.212 510.449 121.147 510.025 121.015 509.652C120.888 509.279 120.698 508.984 120.445 508.768C120.193 508.551 119.879 508.443 119.503 508.443C119.123 508.443 118.803 508.551 118.544 508.768C118.288 508.984 118.095 509.279 117.963 509.652C117.835 510.025 117.771 510.449 117.771 510.925C117.771 511.401 117.835 511.825 117.963 512.198C118.095 512.571 118.288 512.866 118.544 513.082C118.803 513.295 119.123 513.402 119.503 513.402ZM124.994 515V506.818H127.194V508.246H127.28C127.429 507.738 127.679 507.354 128.031 507.095C128.382 506.832 128.787 506.701 129.245 506.701C129.359 506.701 129.481 506.708 129.613 506.722C129.744 506.737 129.859 506.756 129.959 506.781V508.794C129.852 508.762 129.705 508.734 129.517 508.709C129.329 508.684 129.156 508.672 129 508.672C128.666 508.672 128.368 508.745 128.105 508.89C127.846 509.032 127.64 509.231 127.487 509.487C127.338 509.743 127.264 510.037 127.264 510.371V515H124.994ZM133.231 515.154C132.709 515.154 132.244 515.064 131.835 514.883C131.427 514.698 131.104 514.426 130.866 514.068C130.631 513.706 130.514 513.255 130.514 512.715C130.514 512.26 130.598 511.879 130.765 511.57C130.931 511.261 131.159 511.012 131.446 510.824C131.734 510.636 132.061 510.494 132.426 510.398C132.796 510.302 133.183 510.234 133.588 510.195C134.064 510.146 134.447 510.099 134.738 510.057C135.029 510.011 135.241 509.943 135.372 509.854C135.504 509.766 135.569 509.634 135.569 509.46V509.428C135.569 509.091 135.463 508.83 135.25 508.645C135.04 508.461 134.742 508.368 134.355 508.368C133.946 508.368 133.621 508.459 133.38 508.64C133.138 508.817 132.979 509.041 132.901 509.311L130.802 509.141C130.908 508.643 131.118 508.214 131.43 507.852C131.743 507.486 132.146 507.205 132.64 507.01C133.137 506.811 133.712 506.712 134.365 506.712C134.82 506.712 135.255 506.765 135.67 506.871C136.089 506.978 136.461 507.143 136.784 507.367C137.11 507.591 137.368 507.878 137.556 508.23C137.744 508.578 137.838 508.995 137.838 509.482V515H135.686V513.865H135.623C135.491 514.121 135.315 514.347 135.095 514.542C134.875 514.734 134.61 514.885 134.301 514.995C133.993 515.101 133.636 515.154 133.231 515.154ZM133.881 513.588C134.214 513.588 134.509 513.523 134.765 513.391C135.021 513.256 135.221 513.075 135.367 512.848C135.512 512.621 135.585 512.363 135.585 512.076V511.207C135.514 511.254 135.417 511.296 135.292 511.335C135.172 511.371 135.035 511.404 134.882 511.436C134.729 511.465 134.577 511.491 134.424 511.516C134.271 511.538 134.133 511.557 134.009 511.575C133.742 511.614 133.51 511.676 133.311 511.761C133.112 511.847 132.957 511.962 132.847 512.108C132.737 512.25 132.682 512.427 132.682 512.64C132.682 512.949 132.794 513.185 133.018 513.349C133.245 513.509 133.533 513.588 133.881 513.588ZM143.951 506.818V508.523H139.024V506.818H143.951ZM140.142 504.858H142.411V512.486C142.411 512.695 142.443 512.859 142.507 512.976C142.571 513.089 142.66 513.169 142.774 513.216C142.891 513.262 143.026 513.285 143.178 513.285C143.285 513.285 143.392 513.276 143.498 513.258C143.605 513.237 143.686 513.221 143.743 513.21L144.1 514.899C143.986 514.934 143.827 514.975 143.621 515.021C143.415 515.071 143.164 515.101 142.869 515.112C142.323 515.133 141.843 515.06 141.431 514.893C141.023 514.727 140.705 514.467 140.478 514.116C140.251 513.764 140.139 513.32 140.142 512.784V504.858ZM145.429 515V506.818H147.698V515H145.429ZM146.569 505.763C146.232 505.763 145.942 505.652 145.701 505.428C145.463 505.201 145.344 504.929 145.344 504.613C145.344 504.3 145.463 504.032 145.701 503.809C145.942 503.581 146.232 503.468 146.569 503.468C146.906 503.468 147.194 503.581 147.432 503.809C147.673 504.032 147.794 504.3 147.794 504.613C147.794 504.929 147.673 505.201 147.432 505.428C147.194 505.652 146.906 505.763 146.569 505.763ZM153.213 515.16C152.385 515.16 151.67 514.984 151.066 514.632C150.466 514.277 150.002 513.784 149.676 513.152C149.349 512.516 149.186 511.779 149.186 510.941C149.186 510.096 149.349 509.357 149.676 508.725C150.002 508.089 150.466 507.596 151.066 507.244C151.67 506.889 152.385 506.712 153.213 506.712C154.04 506.712 154.754 506.889 155.354 507.244C155.958 507.596 156.423 508.089 156.75 508.725C157.076 509.357 157.24 510.096 157.24 510.941C157.24 511.779 157.076 512.516 156.75 513.152C156.423 513.784 155.958 514.277 155.354 514.632C154.754 514.984 154.04 515.16 153.213 515.16ZM153.223 513.402C153.6 513.402 153.914 513.295 154.166 513.082C154.418 512.866 154.608 512.571 154.736 512.198C154.867 511.825 154.933 511.401 154.933 510.925C154.933 510.449 154.867 510.025 154.736 509.652C154.608 509.279 154.418 508.984 154.166 508.768C153.914 508.551 153.6 508.443 153.223 508.443C152.843 508.443 152.524 508.551 152.264 508.768C152.009 508.984 151.815 509.279 151.684 509.652C151.556 510.025 151.492 510.449 151.492 510.925C151.492 511.401 151.556 511.825 151.684 512.198C151.815 512.571 152.009 512.866 152.264 513.082C152.524 513.295 152.843 513.402 153.223 513.402ZM160.984 510.27V515H158.715V506.818H160.878V508.262H160.974C161.155 507.786 161.458 507.409 161.884 507.132C162.311 506.852 162.827 506.712 163.435 506.712C164.003 506.712 164.498 506.836 164.921 507.085C165.343 507.333 165.672 507.688 165.906 508.15C166.141 508.608 166.258 509.155 166.258 509.79V515H163.989V510.195C163.992 509.695 163.864 509.304 163.605 509.023C163.346 508.739 162.989 508.597 162.534 508.597C162.229 508.597 161.959 508.663 161.725 508.794C161.494 508.926 161.313 509.118 161.181 509.37C161.054 509.618 160.988 509.918 160.984 510.27Z" fill="black"/>
<path d="M319.828 583H317.357L321.123 572.091H324.095L327.856 583H325.384L322.652 574.584H322.566L319.828 583ZM319.674 578.712H325.512V580.512H319.674V578.712ZM332.442 583.16C331.604 583.16 330.883 582.982 330.279 582.627C329.679 582.268 329.218 581.771 328.895 581.136C328.575 580.5 328.415 579.768 328.415 578.941C328.415 578.103 328.577 577.368 328.9 576.736C329.227 576.1 329.69 575.605 330.29 575.25C330.89 574.891 331.604 574.712 332.431 574.712C333.145 574.712 333.77 574.841 334.306 575.1C334.843 575.36 335.267 575.724 335.58 576.192C335.892 576.661 336.064 577.212 336.096 577.844H333.955C333.895 577.435 333.735 577.107 333.475 576.858C333.22 576.606 332.884 576.48 332.469 576.48C332.117 576.48 331.81 576.576 331.547 576.768C331.288 576.956 331.086 577.231 330.94 577.593C330.794 577.956 330.722 578.394 330.722 578.909C330.722 579.431 330.793 579.875 330.935 580.241C331.08 580.607 331.284 580.885 331.547 581.077C331.81 581.269 332.117 581.365 332.469 581.365C332.728 581.365 332.961 581.311 333.167 581.205C333.376 581.098 333.548 580.944 333.683 580.741C333.822 580.536 333.912 580.289 333.955 580.001H336.096C336.061 580.626 335.89 581.176 335.585 581.652C335.283 582.125 334.866 582.494 334.333 582.76C333.8 583.027 333.17 583.16 332.442 583.16ZM341.901 574.818V576.523H336.974V574.818H341.901ZM338.092 572.858H340.362V580.486C340.362 580.695 340.394 580.859 340.457 580.976C340.521 581.089 340.61 581.169 340.724 581.216C340.841 581.262 340.976 581.285 341.129 581.285C341.235 581.285 341.342 581.276 341.448 581.258C341.555 581.237 341.636 581.221 341.693 581.21L342.05 582.899C341.937 582.934 341.777 582.975 341.571 583.021C341.365 583.071 341.114 583.101 340.82 583.112C340.273 583.133 339.793 583.06 339.381 582.893C338.973 582.727 338.655 582.467 338.428 582.116C338.201 581.764 338.089 581.32 338.092 580.784V572.858ZM343.379 583V574.818H345.648V583H343.379ZM344.519 573.763C344.182 573.763 343.892 573.652 343.651 573.428C343.413 573.201 343.294 572.929 343.294 572.613C343.294 572.3 343.413 572.032 343.651 571.809C343.892 571.581 344.182 571.468 344.519 571.468C344.856 571.468 345.144 571.581 345.382 571.809C345.623 572.032 345.744 572.3 345.744 572.613C345.744 572.929 345.623 573.201 345.382 573.428C345.144 573.652 344.856 573.763 344.519 573.763ZM355.094 574.818L352.233 583H349.677L346.816 574.818H349.213L350.912 580.672H350.998L352.692 574.818H355.094ZM356.255 583V574.818H358.524V583H356.255ZM357.395 573.763C357.058 573.763 356.768 573.652 356.527 573.428C356.289 573.201 356.17 572.929 356.17 572.613C356.17 572.3 356.289 572.032 356.527 571.809C356.768 571.581 357.058 571.468 357.395 571.468C357.732 571.468 358.02 571.581 358.258 571.809C358.499 572.032 358.62 572.3 358.62 572.613C358.62 572.929 358.499 573.201 358.258 573.428C358.02 573.652 357.732 573.763 357.395 573.763ZM364.694 574.818V576.523H359.767V574.818H364.694ZM360.885 572.858H363.155V580.486C363.155 580.695 363.187 580.859 363.25 580.976C363.314 581.089 363.403 581.169 363.517 581.216C363.634 581.262 363.769 581.285 363.922 581.285C364.028 581.285 364.135 581.276 364.241 581.258C364.348 581.237 364.429 581.221 364.486 581.21L364.843 582.899C364.729 582.934 364.57 582.975 364.364 583.021C364.158 583.071 363.907 583.101 363.613 583.112C363.066 583.133 362.586 583.06 362.174 582.893C361.766 582.727 361.448 582.467 361.221 582.116C360.994 581.764 360.882 581.32 360.885 580.784V572.858ZM367.573 586.068C367.285 586.068 367.016 586.045 366.763 585.999C366.515 585.956 366.309 585.901 366.146 585.834L366.657 584.14C366.923 584.222 367.163 584.266 367.376 584.273C367.593 584.28 367.779 584.23 367.935 584.124C368.095 584.017 368.225 583.836 368.324 583.581L368.457 583.234L365.522 574.818H367.909L369.603 580.827H369.688L371.398 574.818H373.8L370.62 583.884C370.467 584.325 370.259 584.708 369.997 585.035C369.737 585.365 369.409 585.619 369.011 585.797C368.614 585.978 368.134 586.068 367.573 586.068Z" fill="black"/>
<path d="M537.574 503.91H535.24C535.198 503.608 535.111 503.34 534.979 503.106C534.848 502.868 534.679 502.665 534.473 502.499C534.267 502.332 534.029 502.204 533.76 502.115C533.493 502.026 533.204 501.982 532.891 501.982C532.327 501.982 531.835 502.122 531.416 502.403C530.997 502.68 530.672 503.085 530.441 503.617C530.21 504.146 530.095 504.789 530.095 505.545C530.095 506.323 530.21 506.977 530.441 507.506C530.675 508.035 531.002 508.434 531.421 508.704C531.84 508.974 532.325 509.109 532.875 509.109C533.184 509.109 533.47 509.068 533.733 508.987C533.999 508.905 534.235 508.786 534.441 508.63C534.647 508.47 534.818 508.276 534.953 508.049C535.091 507.822 535.187 507.562 535.24 507.271L537.574 507.282C537.513 507.783 537.362 508.266 537.121 508.731C536.883 509.192 536.561 509.606 536.157 509.972C535.755 510.334 535.276 510.622 534.718 510.835C534.164 511.044 533.538 511.149 532.838 511.149C531.865 511.149 530.995 510.929 530.228 510.489C529.464 510.048 528.861 509.411 528.417 508.576C527.977 507.742 527.756 506.732 527.756 505.545C527.756 504.356 527.98 503.344 528.428 502.509C528.875 501.675 529.482 501.039 530.249 500.602C531.016 500.162 531.879 499.942 532.838 499.942C533.47 499.942 534.056 500.031 534.596 500.208C535.139 500.386 535.62 500.645 536.039 500.986C536.458 501.323 536.799 501.737 537.062 502.227C537.328 502.717 537.499 503.278 537.574 503.91ZM542.882 511.16C542.054 511.16 541.339 510.984 540.735 510.632C540.135 510.277 539.671 509.784 539.345 509.152C539.018 508.516 538.855 507.779 538.855 506.941C538.855 506.096 539.018 505.357 539.345 504.725C539.671 504.089 540.135 503.596 540.735 503.244C541.339 502.889 542.054 502.712 542.882 502.712C543.709 502.712 544.423 502.889 545.023 503.244C545.627 503.596 546.092 504.089 546.419 504.725C546.745 505.357 546.909 506.096 546.909 506.941C546.909 507.779 546.745 508.516 546.419 509.152C546.092 509.784 545.627 510.277 545.023 510.632C544.423 510.984 543.709 511.16 542.882 511.16ZM542.892 509.402C543.269 509.402 543.583 509.295 543.835 509.082C544.087 508.866 544.277 508.571 544.405 508.198C544.536 507.825 544.602 507.401 544.602 506.925C544.602 506.449 544.536 506.025 544.405 505.652C544.277 505.279 544.087 504.984 543.835 504.768C543.583 504.551 543.269 504.443 542.892 504.443C542.512 504.443 542.193 504.551 541.933 504.768C541.678 504.984 541.484 505.279 541.353 505.652C541.225 506.025 541.161 506.449 541.161 506.925C541.161 507.401 541.225 507.825 541.353 508.198C541.484 508.571 541.678 508.866 541.933 509.082C542.193 509.295 542.512 509.402 542.892 509.402ZM548.384 511V502.818H550.547V504.262H550.643C550.813 503.782 551.097 503.404 551.495 503.127C551.893 502.85 552.368 502.712 552.922 502.712C553.483 502.712 553.961 502.852 554.355 503.132C554.749 503.409 555.012 503.786 555.144 504.262H555.229C555.396 503.793 555.698 503.418 556.134 503.138C556.575 502.854 557.095 502.712 557.695 502.712C558.459 502.712 559.078 502.955 559.554 503.441C560.034 503.924 560.273 504.61 560.273 505.498V511H558.009V505.945C558.009 505.49 557.889 505.15 557.647 504.922C557.406 504.695 557.104 504.581 556.742 504.581C556.33 504.581 556.008 504.713 555.778 504.975C555.547 505.235 555.431 505.577 555.431 506.004V511H553.231V505.897C553.231 505.496 553.116 505.176 552.885 504.938C552.658 504.7 552.358 504.581 551.985 504.581C551.733 504.581 551.506 504.645 551.303 504.773C551.104 504.897 550.946 505.073 550.829 505.3C550.712 505.524 550.653 505.787 550.653 506.089V511H548.384ZM562.066 511V502.818H564.228V504.262H564.324C564.495 503.782 564.779 503.404 565.176 503.127C565.574 502.85 566.05 502.712 566.604 502.712C567.165 502.712 567.643 502.852 568.037 503.132C568.431 503.409 568.694 503.786 568.825 504.262H568.911C569.077 503.793 569.379 503.418 569.816 503.138C570.256 502.854 570.777 502.712 571.377 502.712C572.14 502.712 572.76 502.955 573.236 503.441C573.715 503.924 573.955 504.61 573.955 505.498V511H571.691V505.945C571.691 505.49 571.57 505.15 571.329 504.922C571.087 504.695 570.786 504.581 570.423 504.581C570.011 504.581 569.69 504.713 569.459 504.975C569.228 505.235 569.113 505.577 569.113 506.004V511H566.913V505.897C566.913 505.496 566.798 505.176 566.567 504.938C566.339 504.7 566.039 504.581 565.667 504.581C565.414 504.581 565.187 504.645 564.985 504.773C564.786 504.897 564.628 505.073 564.511 505.3C564.393 505.524 564.335 505.787 564.335 506.089V511H562.066ZM580.994 507.516V502.818H583.263V511H581.085V509.514H580.999C580.815 509.993 580.508 510.379 580.078 510.67C579.652 510.961 579.132 511.107 578.517 511.107C577.97 511.107 577.489 510.982 577.074 510.734C576.658 510.485 576.333 510.132 576.099 509.674C575.868 509.216 575.751 508.667 575.747 508.028V502.818H578.017V507.623C578.02 508.106 578.15 508.488 578.405 508.768C578.661 509.049 579.004 509.189 579.433 509.189C579.707 509.189 579.963 509.127 580.2 509.002C580.438 508.875 580.63 508.686 580.776 508.438C580.925 508.189 580.998 507.882 580.994 507.516ZM587.348 506.27V511H585.078V502.818H587.241V504.262H587.337C587.518 503.786 587.822 503.409 588.248 503.132C588.674 502.852 589.191 502.712 589.798 502.712C590.366 502.712 590.861 502.836 591.284 503.085C591.707 503.333 592.035 503.688 592.269 504.15C592.504 504.608 592.621 505.155 592.621 505.79V511H590.352V506.195C590.355 505.695 590.228 505.304 589.968 505.023C589.709 504.739 589.352 504.597 588.898 504.597C588.592 504.597 588.322 504.663 588.088 504.794C587.857 504.926 587.676 505.118 587.545 505.37C587.417 505.618 587.351 505.918 587.348 506.27ZM594.409 511V502.818H596.679V511H594.409ZM595.549 501.763C595.212 501.763 594.923 501.652 594.681 501.428C594.443 501.201 594.324 500.929 594.324 500.613C594.324 500.3 594.443 500.032 594.681 499.809C594.923 499.581 595.212 499.468 595.549 499.468C595.887 499.468 596.174 499.581 596.412 499.809C596.654 500.032 596.775 500.3 596.775 500.613C596.775 500.929 596.654 501.201 596.412 501.428C596.174 501.652 595.887 501.763 595.549 501.763ZM602.193 511.16C601.355 511.16 600.634 510.982 600.03 510.627C599.43 510.268 598.969 509.771 598.646 509.136C598.326 508.5 598.166 507.768 598.166 506.941C598.166 506.103 598.328 505.368 598.651 504.736C598.978 504.1 599.441 503.605 600.041 503.25C600.641 502.891 601.355 502.712 602.182 502.712C602.896 502.712 603.521 502.841 604.057 503.1C604.594 503.36 605.018 503.724 605.331 504.192C605.643 504.661 605.815 505.212 605.847 505.844H603.706C603.646 505.435 603.486 505.107 603.226 504.858C602.971 504.606 602.635 504.48 602.22 504.48C601.868 504.48 601.561 504.576 601.298 504.768C601.039 504.956 600.837 505.231 600.691 505.593C600.545 505.956 600.473 506.394 600.473 506.909C600.473 507.431 600.544 507.875 600.686 508.241C600.831 508.607 601.035 508.885 601.298 509.077C601.561 509.269 601.868 509.365 602.22 509.365C602.479 509.365 602.712 509.311 602.918 509.205C603.127 509.098 603.299 508.944 603.434 508.741C603.573 508.536 603.663 508.289 603.706 508.001H605.847C605.812 508.626 605.641 509.176 605.336 509.652C605.034 510.125 604.617 510.494 604.084 510.76C603.551 511.027 602.921 511.16 602.193 511.16ZM609.633 511.154C609.111 511.154 608.646 511.064 608.238 510.883C607.829 510.698 607.506 510.426 607.268 510.068C607.034 509.706 606.917 509.255 606.917 508.715C606.917 508.26 607 507.879 607.167 507.57C607.334 507.261 607.561 507.012 607.849 506.824C608.136 506.636 608.463 506.494 608.829 506.398C609.198 506.302 609.585 506.234 609.99 506.195C610.466 506.146 610.849 506.099 611.141 506.057C611.432 506.011 611.643 505.943 611.775 505.854C611.906 505.766 611.972 505.634 611.972 505.46V505.428C611.972 505.091 611.865 504.83 611.652 504.645C611.442 504.461 611.144 504.368 610.757 504.368C610.349 504.368 610.024 504.459 609.782 504.64C609.541 504.817 609.381 505.041 609.303 505.311L607.204 505.141C607.311 504.643 607.52 504.214 607.833 503.852C608.145 503.486 608.548 503.205 609.042 503.01C609.539 502.811 610.114 502.712 610.768 502.712C611.222 502.712 611.657 502.765 612.073 502.871C612.492 502.978 612.863 503.143 613.186 503.367C613.513 503.591 613.77 503.878 613.958 504.23C614.147 504.578 614.241 504.995 614.241 505.482V511H612.089V509.865H612.025C611.893 510.121 611.718 510.347 611.498 510.542C611.277 510.734 611.013 510.885 610.704 510.995C610.395 511.101 610.038 511.154 609.633 511.154ZM610.283 509.588C610.617 509.588 610.912 509.523 611.167 509.391C611.423 509.256 611.624 509.075 611.769 508.848C611.915 508.621 611.988 508.363 611.988 508.076V507.207C611.917 507.254 611.819 507.296 611.695 507.335C611.574 507.371 611.437 507.404 611.284 507.436C611.132 507.465 610.979 507.491 610.826 507.516C610.674 507.538 610.535 507.557 610.411 507.575C610.145 507.614 609.912 507.676 609.713 507.761C609.514 507.847 609.36 507.962 609.25 508.108C609.14 508.25 609.085 508.427 609.085 508.64C609.085 508.949 609.196 509.185 609.42 509.349C609.647 509.509 609.935 509.588 610.283 509.588ZM620.353 502.818V504.523H615.426V502.818H620.353ZM616.545 500.858H618.814V508.486C618.814 508.695 618.846 508.859 618.91 508.976C618.974 509.089 619.062 509.169 619.176 509.216C619.293 509.262 619.428 509.285 619.581 509.285C619.687 509.285 619.794 509.276 619.9 509.258C620.007 509.237 620.089 509.221 620.145 509.21L620.502 510.899C620.389 510.934 620.229 510.975 620.023 511.021C619.817 511.071 619.567 511.101 619.272 511.112C618.725 511.133 618.246 511.06 617.834 510.893C617.425 510.727 617.107 510.467 616.88 510.116C616.653 509.764 616.541 509.32 616.545 508.784V500.858ZM621.831 511V502.818H624.1V511H621.831ZM622.971 501.763C622.634 501.763 622.344 501.652 622.103 501.428C621.865 501.201 621.746 500.929 621.746 500.613C621.746 500.3 621.865 500.032 622.103 499.809C622.344 499.581 622.634 499.468 622.971 499.468C623.309 499.468 623.596 499.581 623.834 499.809C624.076 500.032 624.196 500.3 624.196 500.613C624.196 500.929 624.076 501.201 623.834 501.428C623.596 501.652 623.309 501.763 622.971 501.763ZM629.615 511.16C628.788 511.16 628.072 510.984 627.468 510.632C626.868 510.277 626.405 509.784 626.078 509.152C625.751 508.516 625.588 507.779 625.588 506.941C625.588 506.096 625.751 505.357 626.078 504.725C626.405 504.089 626.868 503.596 627.468 503.244C628.072 502.889 628.788 502.712 629.615 502.712C630.442 502.712 631.156 502.889 631.756 503.244C632.36 503.596 632.825 504.089 633.152 504.725C633.479 505.357 633.642 506.096 633.642 506.941C633.642 507.779 633.479 508.516 633.152 509.152C632.825 509.784 632.36 510.277 631.756 510.632C631.156 510.984 630.442 511.16 629.615 511.16ZM629.626 509.402C630.002 509.402 630.316 509.295 630.568 509.082C630.821 508.866 631.011 508.571 631.138 508.198C631.27 507.825 631.335 507.401 631.335 506.925C631.335 506.449 631.27 506.025 631.138 505.652C631.011 505.279 630.821 504.984 630.568 504.768C630.316 504.551 630.002 504.443 629.626 504.443C629.246 504.443 628.926 504.551 628.667 504.768C628.411 504.984 628.218 505.279 628.086 505.652C627.958 506.025 627.894 506.449 627.894 506.925C627.894 507.401 627.958 507.825 628.086 508.198C628.218 508.571 628.411 508.866 628.667 509.082C628.926 509.295 629.246 509.402 629.626 509.402ZM637.387 506.27V511H635.117V502.818H637.28V504.262H637.376C637.557 503.786 637.861 503.409 638.287 503.132C638.713 502.852 639.23 502.712 639.837 502.712C640.405 502.712 640.9 502.836 641.323 503.085C641.746 503.333 642.074 503.688 642.309 504.15C642.543 504.608 642.66 505.155 642.66 505.79V511H640.391V506.195C640.394 505.695 640.267 505.304 640.007 505.023C639.748 504.739 639.391 504.597 638.937 504.597C638.631 504.597 638.361 504.663 638.127 504.794C637.896 504.926 637.715 505.118 637.584 505.37C637.456 505.618 637.39 505.918 637.387 506.27Z" fill="black"/>
<path d="M623.948 295V284.091H631.171V285.993H626.255V288.592H630.692V290.494H626.255V295H623.948ZM634.949 284.091V295H632.68V284.091H634.949ZM640.464 295.16C639.636 295.16 638.921 294.984 638.317 294.632C637.717 294.277 637.253 293.784 636.927 293.152C636.6 292.516 636.437 291.779 636.437 290.941C636.437 290.096 636.6 289.357 636.927 288.725C637.253 288.089 637.717 287.596 638.317 287.244C638.921 286.889 639.636 286.712 640.464 286.712C641.291 286.712 642.005 286.889 642.605 287.244C643.209 287.596 643.674 288.089 644.001 288.725C644.327 289.357 644.491 290.096 644.491 290.941C644.491 291.779 644.327 292.516 644.001 293.152C643.674 293.784 643.209 294.277 642.605 294.632C642.005 294.984 641.291 295.16 640.464 295.16ZM640.474 293.402C640.851 293.402 641.165 293.295 641.417 293.082C641.669 292.866 641.859 292.571 641.987 292.198C642.118 291.825 642.184 291.401 642.184 290.925C642.184 290.449 642.118 290.025 641.987 289.652C641.859 289.279 641.669 288.984 641.417 288.768C641.165 288.551 640.851 288.443 640.474 288.443C640.094 288.443 639.775 288.551 639.515 288.768C639.26 288.984 639.066 289.279 638.935 289.652C638.807 290.025 638.743 290.449 638.743 290.925C638.743 291.401 638.807 291.825 638.935 292.198C639.066 292.571 639.26 292.866 639.515 293.082C639.775 293.295 640.094 293.402 640.474 293.402ZM647.375 295L645.148 286.818H647.444L648.712 292.315H648.787L650.108 286.818H652.361L653.703 292.283H653.772L655.019 286.818H657.309L655.088 295H652.686L651.279 289.854H651.178L649.772 295H647.375Z" fill="black"/>
<path d="M548.404 110L545.282 99.0909H547.802L549.608 106.671H549.698L551.69 99.0909H553.848L555.835 106.687H555.93L557.736 99.0909H560.256L557.134 110H554.886L552.809 102.868H552.724L550.652 110H548.404ZM564.297 110.16C563.456 110.16 562.731 109.989 562.124 109.648C561.52 109.304 561.055 108.817 560.728 108.189C560.402 107.557 560.238 106.809 560.238 105.946C560.238 105.105 560.402 104.366 560.728 103.73C561.055 103.095 561.515 102.599 562.108 102.244C562.705 101.889 563.404 101.712 564.207 101.712C564.747 101.712 565.249 101.799 565.714 101.973C566.183 102.143 566.591 102.401 566.939 102.745C567.291 103.089 567.564 103.523 567.76 104.045C567.955 104.563 568.053 105.17 568.053 105.866V106.49H561.144V105.083H565.917C565.917 104.757 565.846 104.467 565.704 104.215C565.562 103.963 565.364 103.766 565.112 103.624C564.864 103.478 564.574 103.406 564.244 103.406C563.9 103.406 563.594 103.485 563.328 103.645C563.065 103.801 562.859 104.013 562.71 104.279C562.561 104.542 562.484 104.835 562.481 105.158V106.495C562.481 106.9 562.555 107.25 562.705 107.544C562.857 107.839 563.072 108.066 563.349 108.226C563.626 108.386 563.955 108.466 564.335 108.466C564.587 108.466 564.818 108.43 565.027 108.359C565.237 108.288 565.416 108.182 565.565 108.04C565.714 107.898 565.828 107.724 565.906 107.518L568.005 107.656C567.898 108.161 567.68 108.601 567.35 108.977C567.023 109.35 566.6 109.641 566.082 109.851C565.567 110.057 564.972 110.16 564.297 110.16ZM571.803 99.0909V110H569.533V99.0909H571.803ZM575.89 99.0909V110H573.62V99.0909H575.89ZM582.805 104.62V106.42H577.83V104.62H582.805ZM584.781 110V99.0909H589.149C589.952 99.0909 590.621 99.2099 591.157 99.4478C591.693 99.6857 592.097 100.016 592.366 100.439C592.636 100.858 592.771 101.341 592.771 101.887C592.771 102.314 592.686 102.688 592.516 103.011C592.345 103.331 592.111 103.594 591.812 103.8C591.518 104.002 591.18 104.146 590.8 104.231V104.338C591.216 104.355 591.605 104.473 591.967 104.689C592.333 104.906 592.629 105.21 592.856 105.6C593.084 105.987 593.197 106.449 593.197 106.985C593.197 107.564 593.054 108.081 592.766 108.535C592.482 108.986 592.061 109.343 591.503 109.606C590.946 109.869 590.259 110 589.442 110H584.781ZM587.088 108.114H588.968C589.611 108.114 590.079 107.992 590.374 107.747C590.669 107.498 590.816 107.168 590.816 106.756C590.816 106.454 590.744 106.188 590.598 105.957C590.452 105.726 590.245 105.545 589.975 105.414C589.708 105.282 589.391 105.217 589.021 105.217H587.088V108.114ZM587.088 103.656H588.797C589.114 103.656 589.394 103.601 589.639 103.491C589.888 103.377 590.083 103.217 590.225 103.011C590.371 102.805 590.443 102.559 590.443 102.271C590.443 101.877 590.303 101.559 590.023 101.317C589.746 101.076 589.351 100.955 588.84 100.955H587.088V103.656ZM598.384 110.16C597.543 110.16 596.818 109.989 596.211 109.648C595.607 109.304 595.142 108.817 594.815 108.189C594.489 107.557 594.325 106.809 594.325 105.946C594.325 105.105 594.489 104.366 594.815 103.73C595.142 103.095 595.602 102.599 596.195 102.244C596.792 101.889 597.491 101.712 598.294 101.712C598.833 101.712 599.336 101.799 599.801 101.973C600.27 102.143 600.678 102.401 601.026 102.745C601.378 103.089 601.651 103.523 601.847 104.045C602.042 104.563 602.14 105.17 602.14 105.866V106.49H595.231V105.083H600.004C600.004 104.757 599.933 104.467 599.79 104.215C599.648 103.963 599.451 103.766 599.199 103.624C598.951 103.478 598.661 103.406 598.331 103.406C597.987 103.406 597.681 103.485 597.415 103.645C597.152 103.801 596.946 104.013 596.797 104.279C596.648 104.542 596.571 104.835 596.568 105.158V106.495C596.568 106.9 596.642 107.25 596.792 107.544C596.944 107.839 597.159 108.066 597.436 108.226C597.713 108.386 598.042 108.466 598.422 108.466C598.674 108.466 598.904 108.43 599.114 108.359C599.324 108.288 599.503 108.182 599.652 108.04C599.801 107.898 599.915 107.724 599.993 107.518L602.092 107.656C601.985 108.161 601.767 108.601 601.436 108.977C601.11 109.35 600.687 109.641 600.169 109.851C599.654 110.057 599.059 110.16 598.384 110.16ZM603.62 110V101.818H605.89V110H603.62ZM604.76 100.763C604.423 100.763 604.134 100.652 603.892 100.428C603.654 100.201 603.535 99.929 603.535 99.6129C603.535 99.3004 603.654 99.0323 603.892 98.8086C604.134 98.5813 604.423 98.4677 604.76 98.4677C605.098 98.4677 605.385 98.5813 605.623 98.8086C605.865 99.0323 605.985 99.3004 605.985 99.6129C605.985 99.929 605.865 100.201 605.623 100.428C605.385 100.652 605.098 100.763 604.76 100.763ZM609.976 105.27V110H607.707V101.818H609.87V103.262H609.966C610.147 102.786 610.451 102.409 610.877 102.132C611.303 101.852 611.82 101.712 612.427 101.712C612.995 101.712 613.49 101.836 613.913 102.085C614.335 102.333 614.664 102.688 614.898 103.15C615.133 103.608 615.25 104.155 615.25 104.79V110H612.981V105.195C612.984 104.695 612.856 104.304 612.597 104.023C612.338 103.739 611.981 103.597 611.527 103.597C611.221 103.597 610.951 103.663 610.717 103.794C610.486 103.926 610.305 104.118 610.174 104.37C610.046 104.618 609.98 104.918 609.976 105.27ZM620.724 113.239C619.989 113.239 619.359 113.137 618.833 112.935C618.311 112.736 617.896 112.464 617.587 112.12C617.278 111.776 617.077 111.388 616.985 110.959L619.084 110.676C619.148 110.84 619.249 110.993 619.387 111.135C619.526 111.277 619.709 111.39 619.936 111.475C620.167 111.564 620.447 111.609 620.778 111.609C621.271 111.609 621.678 111.488 621.998 111.246C622.321 111.009 622.482 110.609 622.482 110.048V108.551H622.386C622.287 108.778 622.138 108.993 621.939 109.196C621.74 109.398 621.484 109.563 621.172 109.691C620.859 109.819 620.487 109.883 620.053 109.883C619.439 109.883 618.88 109.741 618.375 109.457C617.875 109.169 617.475 108.73 617.177 108.141C616.882 107.548 616.735 106.799 616.735 105.893C616.735 104.966 616.886 104.192 617.188 103.571C617.489 102.949 617.891 102.484 618.391 102.175C618.896 101.866 619.448 101.712 620.048 101.712C620.506 101.712 620.89 101.79 621.199 101.946C621.507 102.099 621.756 102.29 621.944 102.521C622.136 102.749 622.283 102.972 622.386 103.192H622.472V101.818H624.725V110.08C624.725 110.776 624.554 111.358 624.213 111.827C623.873 112.296 623.4 112.647 622.797 112.882C622.196 113.12 621.506 113.239 620.724 113.239ZM620.772 108.178C621.138 108.178 621.447 108.088 621.699 107.907C621.955 107.722 622.15 107.459 622.285 107.118C622.424 106.774 622.493 106.362 622.493 105.882C622.493 105.403 622.425 104.988 622.29 104.636C622.156 104.281 621.96 104.006 621.705 103.81C621.449 103.615 621.138 103.517 620.772 103.517C620.4 103.517 620.085 103.619 619.83 103.821C619.574 104.02 619.38 104.297 619.249 104.652C619.118 105.007 619.052 105.417 619.052 105.882C619.052 106.355 619.118 106.763 619.249 107.108C619.384 107.449 619.577 107.713 619.83 107.901C620.085 108.086 620.4 108.178 620.772 108.178Z" fill="black"/>
<path d="M345.5 36L527.58 111.42L603 293.5L527.58 475.58L345.5 551L163.42 475.58L88 293.5L163.42 111.42L345.5 36Z" fill="#41B2E2" fill-opacity="0.23"/>
<path d="M345.5 36L527.58 111.42L603 293.5L527.58 475.58L345.5 551L163.42 475.58L88 293.5L163.42 111.42L345.5 36Z" fill="#41B2E2" fill-opacity="0.23"/>
<path d="M346 56L511.463 124.537L580 290L511.463 455.463L346 524L180.537 455.463L112 290L180.537 124.537L346 56Z" fill="#41B2E2" fill-opacity="0.23"/>
<path d="M346 56L511.463 124.537L580 290L511.463 455.463L346 524L180.537 455.463L112 290L180.537 124.537L346 56Z" fill="#41B2E2" fill-opacity="0.23"/>
<path d="M345.5 82L493.639 143.361L555 291.5L493.639 439.639L345.5 501L197.361 439.639L136 291.5L197.361 143.361L345.5 82Z" fill="#B1DFF3"/>
<path d="M346 105L475.401 158.599L529 288L475.401 417.401L346 471L216.599 417.401L163 288L216.599 158.599L346 105Z" fill="#83CCEC"/>
<path d="M346 134L454.894 179.106L500 288L454.894 396.894L346 442L237.106 396.894L192 288L237.106 179.106L346 134Z" fill="#B1DFF3"/>
<path d="M345.5 165L429.999 200.001L465 284.5L429.999 368.999L345.5 404L261.001 368.999L226 284.5L261.001 200.001L345.5 165Z" fill="#83CCEC"/>
<path d="M345.5 190L412.322 217.678L440 284.5L412.322 351.322L345.5 379L278.678 351.322L251 284.5L278.678 217.678L345.5 190Z" fill="#B1DFF3"/>
<path d="M346 236L387.012 252.988L404 294L387.012 335.012L346 352L304.988 335.012L288 294L304.988 252.988L346 236Z" fill="#83CCEC"/>
<path d="M344 296L526 114L506.5 433L344 496.5L186.5 433L157 243.5L344 296Z" fill="#FF0202" fill-opacity="0.28"/>
<path d="M325.734 241.931L272.178 405.305L187.731 208.785L265.359 122.089L378.253 112.803L452.879 217.222L325.734 241.931Z" fill="#187721" fill-opacity="0.33"/>
<path d="M387.481 271.759L295.569 80.9997L538.294 183.386L543.38 326.619L451.079 431.231L295.693 402.229L387.481 271.759Z" fill="#127BAB" fill-opacity="0.51"/>
</svg>
