<?xml version="1.0" encoding="UTF-8"?>
<svg id="Layer_2" data-name="Layer 2" xmlns="http://www.w3.org/2000/svg" xmlns:xlink="http://www.w3.org/1999/xlink" viewBox="0 0 244.17 266.8">
  <defs>
    <style>
      .cls-1 {
        fill: url(#linear-gradient);
      }

      .cls-1, .cls-2, .cls-3 {
        stroke-width: 0px;
      }

      .cls-2 {
        fill: #0f0f1a;
      }

      .cls-3 {
        fill: url(#linear-gradient-2);
      }
    </style>
    <linearGradient id="linear-gradient" x1="124.63" y1="-23.13" x2="119.26" y2="399.68" gradientUnits="userSpaceOnUse">
      <stop offset=".03" stop-color="#dc3c96"/>
      <stop offset="1" stop-color="#250e29"/>
    </linearGradient>
    <linearGradient id="linear-gradient-2" x1="185.15" y1="30.07" x2="185.77" y2="106.76" gradientUnits="userSpaceOnUse">
      <stop offset=".03" stop-color="#ea3c96"/>
      <stop offset="1" stop-color="#250e29"/>
    </linearGradient>
  </defs>
  <path class="cls-1" d="M123.13,99.92c-25.13,18.27-16.98,58.15,13.86,64.73l72.28,15.42c20.24,4.32,34.7,22.19,34.7,42.89h0c0,24.22-19.63,43.85-43.85,43.85H33.29c-20.19,0-35.62-17.79-33-37.6.11-.85.36-1.67.68-2.46l33.21-81.21h0c6.81-34.2-2.49-69.63-25.21-96.07l-6.85-7.98C-2.15,20.83,13.62,1.46,34.71,1.46h112.32c17.95,0,61.86-13.43,93.06,41.07,9.82,17.15,2.72,64.75-30.53,64.75l-6.67-6.06c-19.13-17.38-47.38-20.22-69.59-6.99l-10.17,5.68Z"/>
  <path class="cls-2" d="M71.81,186.62l-17.03,21.17c-10.72,13.32-2.18,33.21,14.87,34.61l29.34,2.41c16.73,1.37,28.41-16.24,20.63-31.11l-12.31-23.57c-7.11-13.62-25.87-15.47-35.5-3.49Z"/>
  <path class="cls-3" d="M175.79,41.36l-10.82,13.45c-4.34,5.39-.88,13.44,6.02,14.01l27.41,2.25c6.77.56,11.5-6.57,8.35-12.59l-7.74-14.82c-4.65-8.91-16.92-10.12-23.22-2.29Z"/>
</svg>